<?xml version="1.0" encoding="UTF-8"?>
<svg width="114px" height="114px" viewBox="0 0 114 114" version="1.1" xmlns="http://www.w3.org/2000/svg" xmlns:xlink="http://www.w3.org/1999/xlink">
    <title>Regulation Sign Template</title>
    <defs>
        <rect id="path-1" x="9" y="11.0973451" width="97" height="91.8053097" rx="13"></rect>
        <filter x="-7.2%" y="-5.4%" width="114.4%" height="115.2%" filterUnits="objectBoundingBox" id="filter-2">
            <feOffset dx="0" dy="2" in="SourceAlpha" result="shadowOffsetOuter1"></feOffset>
            <feGaussianBlur stdDeviation="2" in="shadowOffsetOuter1" result="shadowBlurOuter1"></feGaussianBlur>
            <feColorMatrix values="0 0 0 0 0   0 0 0 0 0   0 0 0 0 0  0 0 0 0.5 0" type="matrix" in="shadowBlurOuter1"></feColorMatrix>
        </filter>
    </defs>
    <g id="UhSpot-Components" stroke="none" stroke-width="1" fill="none" fill-rule="evenodd">
        <g id="Regulation-Sign-Template">
            <g id="Navigation---Top-Left">
                <rect id="Navigation" fill="#0056D6" x="0" y="0" width="114" height="114" rx="13"></rect>
                <g id="Rectangle-3">
                    <use fill="black" fill-opacity="1" filter="url(#filter-2)" xlink:href="#path-1"></use>
                    <use fill="#FFFFFF" fill-rule="evenodd" xlink:href="#path-1"></use>
                </g>
            </g>
            <g id="Meter-Icon" transform="translate(29.000000, 13.115044)">
                <g id="Meter---Base" transform="translate(10.000000, 49.433628)">
                    <path d="M7.93525486,29.3351615 C7.93525486,33.1251075 7.93525486,35.6517381 7.93525486,36.9150534 C7.93525486,38.8100264 11.6699133,38.8100264 11.6699133,36.9150534 C11.6699133,35.6517381 11.6699133,33.1251075 11.6699133,29.3351615 L7.93525486,29.3351615 Z" id="Path-30" fill="#0056D6"></path>
                    <path d="M23.1199698,29.3351615 C23.1199698,33.2404579 23.1199698,35.7670885 23.1199698,36.9150534 C23.1199698,38.6370008 26.8546283,38.6370008 26.8546283,36.9150534 C26.8546283,35.7670885 26.8546283,33.2404579 26.8546283,29.3351615 L23.1199698,29.3351615 Z" id="Path-30" fill="#0056D6"></path>
                    <path d="M0.213823548,0 C-0.148741537,10.0330632 -0.0502251295,16.4244482 0.509372769,19.1741548 C1.34876962,23.2987147 3.04635775,28.4412771 8.94873909,31.1408729 C14.8511204,33.8404688 19.1191814,33.7152482 24.6634075,30.7990997 C30.2076336,27.8829512 32.4204826,21.6877643 32.8068275,18.2474159 C33.0643908,15.9538504 33.0643908,9.94800797 32.8068275,0.229888705 L0.213823548,0 Z" id="Path-28" fill="#0056D6"></path>
                    <path d="M3.2272822,0 C2.93069244,9.00138194 3.01128199,14.7355526 3.46905086,17.202512 C4.15570416,20.902951 5.54438521,25.5167133 10.3727207,27.9387147 C15.2010562,30.3607161 18.6924658,30.2483717 23.2278189,27.6320854 C27.7631721,25.015799 29.5733529,19.4576516 29.8893953,16.371068 C30.1000903,14.3133455 30.1000903,8.92507275 29.8893953,0.206249675 L3.2272822,0 Z" id="Path-28" fill="#96B0FA"></path>
                    <path d="M23.3617289,15.76821 C22.3684832,15.7550995 21.403675,16.6319572 21.4334511,17.6055025 C21.4632272,18.5790478 22.265145,19.5146957 23.3040967,19.5284096 C24.3430483,19.5421234 25.2038484,18.6195544 25.1745103,17.6603298 C25.1451722,16.7011051 24.3549745,15.7813205 23.3617289,15.76821 Z" id="Path-29" fill="#0056D6"></path>
                    <path d="M9.2086525,15.7680648 C7.44054558,15.7680648 7.44054558,19.3447611 9.2086525,19.3447611 C10.9767594,19.3447611 14.2318953,19.3988066 15.9063096,19.3447611 C17.5807239,19.2907156 17.5807239,15.7680648 15.9063096,15.7680648 C14.2318953,15.7680648 10.9767594,15.7680648 9.2086525,15.7680648 Z" id="Path-29" fill="#0056D6"></path>
                    <path d="M10.099735,8.10123166 C7.05256747,8.10123166 7.05256747,12.3409494 10.099735,12.3409494 C13.1469025,12.3409494 19.7834769,12.3409494 22.8260972,12.3409494 C25.8687176,12.3409494 25.8687176,8.10123166 22.8260972,8.10123166 C19.7834769,8.10123166 13.1469025,8.10123166 10.099735,8.10123166 Z" id="Path-29" fill="#0056D6"></path>
                </g>
                <g id="Meter---Top">
                    <path d="M0.0156535056,28.4740696 C-0.309336721,19.5045025 4.505804,11.9469084 7.04748641,9.13417617 C9.58916883,6.32144391 16.8361036,-0.17139198 26.550949,0.00346275766 C36.2657944,0.178317496 42.9267028,4.29096386 45.8640817,6.77411639 C48.8014606,9.25726893 55,16.0941612 55,26.5602712 C55,37.0263812 53.8256591,39.8517613 47.9469205,46.40231 C42.0681818,52.9528587 36.1585248,55.4867257 28.2415344,55.4867257 C20.3245441,55.4867257 13.4582206,52.598642 8.81003525,48.2083972 C4.16184993,43.8181524 0.340643732,37.4436366 0.0156535056,28.4740696 Z" id="Path-10" fill="#FB4141"></path>
                    <path d="M3.58034636,28.4599697 C3.29652486,20.708627 7.50169878,14.1774866 9.7214089,11.7467727 C11.941119,9.31605876 18.270035,3.70506377 26.7542345,3.85617017 C35.238434,4.00727657 41.0555595,7.56135348 43.6208406,9.70725039 C46.1861216,11.8531473 51.5994496,17.7614698 51.5994496,26.8060987 C51.5994496,35.8507275 50.5738705,38.2923715 45.4398319,43.9532409 C40.3057933,49.6141103 35.1447529,51.8038337 28.2306619,51.8038337 C21.3165709,51.8038337 15.3200515,49.3080024 11.2606836,45.5140298 C7.20131572,41.7200571 3.86416785,36.2113123 3.58034636,28.4599697 Z" id="Path-10" fill="#FFFFFF"></path>
                    <path d="M27.0452203,36.9672982 C24.3648294,37.0943809 21.7361309,39.2087687 21.7361309,42.644751 C21.7361309,46.0807332 25.129144,48.5074709 27.5358938,48.5074709 C29.9426436,48.5074709 33.1848854,46.2942993 33.1848854,42.644751 C33.1848854,38.9952026 29.7256113,36.8402155 27.0452203,36.9672982 Z" id="Path-14" fill="#FDB323"></path>
                    <path d="M27.4713903,41.0571363 C26.5046933,41.033755 25.7646206,41.9101485 25.7646206,42.7050547 C25.7646206,43.4999608 26.4187462,44.3276297 27.4590556,44.3527914 C28.4993649,44.3779531 29.1251137,43.5993734 29.1251137,42.8044673 C29.1251137,42.0095611 28.4380873,41.0805176 27.4713903,41.0571363 Z" id="Path-27" fill="#FCD7A0"></path>
                    <path d="M34.3305734,33.3038412 C32.095341,33.3038412 32.095341,36.659919 34.3305734,36.659919 C36.5658059,36.659919 41.6238954,36.659919 43.92368,36.659919 C46.2234645,36.659919 46.2234645,33.3038412 43.92368,33.3038412 C41.6238954,33.3038412 36.5658059,33.3038412 34.3305734,33.3038412 Z" id="Path-13" fill="#0156D6"></path>
                    <path d="M9.77752332,33.3038412 C7.23907277,33.3038412 7.23907277,36.659919 9.77752332,36.659919 C12.3159739,36.659919 17.3426504,36.659919 19.9313255,36.659919 C22.5200006,36.659919 22.5200006,33.3038412 19.9313255,33.3038412 C17.3426504,33.3038412 12.3159739,33.3038412 9.77752332,33.3038412 Z" id="Path-12" fill="#0056D6"></path>
                    <path d="M8.65058126,29.1532223 C11.1531877,29.1532223 41.9950143,29.1532223 45.6268074,29.1532223 C49.2586004,29.1532223 46.2129081,18.9035824 42.1306166,14.4352552 C38.0483251,9.96692797 34.6264008,7.31854858 27.2189934,7.31854858 C19.811586,7.31854858 15.971937,10.530265 12.5318832,14.4352552 C9.09182946,18.3402454 6.14797479,29.1532223 8.65058126,29.1532223 Z" id="Path-11" fill="#0056D6"></path>
                    <path d="M11.1835564,25.7281754 L43.4887849,25.7281754 C42.6348944,21.1727799 41.1425038,17.9021206 39.0116131,15.9161974 C35.815277,12.9373125 33.1359925,11.1717263 27.3361707,11.1717263 C21.5363488,11.1717263 18.5299959,13.3128706 15.8365165,15.9161974 C14.0408636,17.6517486 12.4898769,20.9224079 11.1835564,25.7281754 Z" id="Path-11" fill="#FFFFFF"></path>
                    <path d="M25.5574796,25.9431646 L30.1075958,25.9431646 L33.7205015,21.5823698 C34.3186033,20.6988681 34.3186033,19.9297199 33.7205015,19.2749251 C33.1223997,18.6201303 32.4145602,18.566853 31.596983,19.1150934 L25.5574796,25.9431646 Z" id="Path-31" fill="#0056D6"></path>
                </g>
            </g>
        </g>
    </g>
</svg>