<?xml version="1.0" encoding="UTF-8"?>
<svg width="114px" height="114px" viewBox="0 0 114 114" version="1.1" xmlns="http://www.w3.org/2000/svg" xmlns:xlink="http://www.w3.org/1999/xlink">
    <title>Regulation Sign Template</title>
    <defs>
        <rect id="path-1" x="8.07079646" y="12" width="97.8584071" height="91" rx="13"></rect>
        <filter x="-7.2%" y="-5.5%" width="114.3%" height="115.4%" filterUnits="objectBoundingBox" id="filter-2">
            <feOffset dx="0" dy="2" in="SourceAlpha" result="shadowOffsetOuter1"></feOffset>
            <feGaussianBlur stdDeviation="2" in="shadowOffsetOuter1" result="shadowBlurOuter1"></feGaussianBlur>
            <feColorMatrix values="0 0 0 0 0   0 0 0 0 0   0 0 0 0 0  0 0 0 0.5 0" type="matrix" in="shadowBlurOuter1"></feColorMatrix>
        </filter>
    </defs>
    <g id="UhSpot-Components" stroke="none" stroke-width="1" fill="none" fill-rule="evenodd">
        <g id="Regulation-Sign-Template">
            <g id="Navigation---Top-Left">
                <rect id="Navigation" fill="#FB4141" x="0" y="0" width="114" height="114" rx="13"></rect>
                <g id="Rectangle-3">
                    <use fill="black" fill-opacity="1" filter="url(#filter-2)" xlink:href="#path-1"></use>
                    <use fill="#FFFFFF" fill-rule="evenodd" xlink:href="#path-1"></use>
                </g>
            </g>
            <g id="No-Parking---Street-Cleaning" transform="translate(17.150442, 19.000000)">
                <path d="M39.8495575,0 C19.9320302,0 0,15.5497405 0,38 C0,58.1781516 16.7121472,76 39.8495575,76 C62.9869678,76 79.699115,57.8341354 79.699115,38 C79.699115,17.3498303 59.7670849,0 39.8495575,0 Z" id="Path" fill="#FB4141"></path>
                <path d="M38.840708,69 C20.4762557,69 6.05309735,55.58 6.05309735,38.5 C6.05309735,21.42 20.4903822,8 38.840708,8 C57.1910338,8 71.6283186,21.42 71.6283186,38.5 C71.6283186,55.58 57.2051603,69 38.840708,69 Z" id="Path" fill="#FFFFFF"></path>
                <path d="M46.196641,15 C52.3900308,17.0869368 55.4867257,21.9670528 55.4867257,29.6403479 C55.4867257,37.313643 51.9611511,42.0371512 44.9100019,43.8108725 L44.9100019,43.8108725 L31.1439161,43.8108725 L31.1439161,60 L22.1946903,60 L22.1946903,15 Z M41.6966061,22.1052632 L30.9140329,22.1052632 L30.9140329,34.7368421 L41.6966061,34.7368421 C44.5486791,33.762351 45.9747155,31.6570878 45.9747155,28.4210526 C45.9747155,25.1850174 44.5486791,23.0797543 41.6966061,22.1052632 Z" id="Path-106" fill="#000000"></path>
                <path d="M10.0889274,21.4996848 C10.0889274,21.4996848 62.9991763,60.6049771 62.9991763,60.6049771 C66.6524773,62.5279548 66.5839813,56.8052176 66.5839813,56.8052176 C64.9732794,55.8349646 12.7081313,17.9999501 12.7081313,17.9999501 C12.7081313,17.9999501 10.0889274,21.4996848 10.0889274,21.4996848 Z" id="Oval-3" fill="#FB4141"></path>
            </g>
        </g>
    </g>
</svg>