<?xml version="1.0" encoding="UTF-8"?>
<svg width="77px" height="77px" viewBox="0 0 77 77" version="1.1" xmlns="http://www.w3.org/2000/svg" xmlns:xlink="http://www.w3.org/1999/xlink">
    <title>Logo 2</title>
    <defs>
        <circle id="path-1" cx="28.5" cy="28.5" r="28.5"></circle>
        <filter x="-30.7%" y="-21.9%" width="161.4%" height="161.4%" filterUnits="objectBoundingBox" id="filter-2">
            <feOffset dx="0" dy="5" in="SourceAlpha" result="shadowOffsetOuter1"></feOffset>
            <feGaussianBlur stdDeviation="5" in="shadowOffsetOuter1" result="shadowBlurOuter1"></feGaussianBlur>
            <feColorMatrix values="0 0 0 0 0.133333333   0 0 0 0 0.168627451   0 0 0 0 0.270588235  0 0 0 0.15 0" type="matrix" in="shadowBlurOuter1"></feColorMatrix>
        </filter>
    </defs>
    <g id="Navigation-View" stroke="none" stroke-width="1" fill="none" fill-rule="evenodd">
        <g id="Logo-2" transform="translate(10.000000, 5.000000)">
            <g id="Oval">
                <use fill="black" fill-opacity="1" filter="url(#filter-2)" xlink:href="#path-1"></use>
                <use fill="#FFFFFF" fill-rule="evenodd" xlink:href="#path-1"></use>
            </g>
            <g id="UhSpotLoader" transform="translate(11.000000, 9.000000)">
                <g id="Logo-2" transform="translate(7.034483, 0.000000)">
                    <path d="M1.16284793,8.93176553 C2.30791452,8.93176553 16.4195799,8.93176553 18.0813053,8.93176553 C19.7430308,8.93176553 18.3494755,4.73901315 16.4816247,2.91118409 C14.6137738,1.08335504 13.0480737,0 9.65881746,0 C6.26956118,0 4.51273133,1.31379558 2.9387361,2.91118409 C1.36474087,4.5085726 0.0177813481,8.93176553 1.16284793,8.93176553 Z" id="Path-11" fill="#0056D6"></path>
                    <path d="M2.49990878,7.0053063 L17.0582011,7.0053063 C16.6733969,5.47070412 16.0008538,4.36889836 15.0405717,3.69988904 C13.6001487,2.69637505 12.3927341,2.10159189 9.77905492,2.10159189 C7.16537576,2.10159189 5.81056834,2.82289142 4.59675676,3.69988904 C3.78754904,4.28455411 3.08859971,5.38635987 2.49990878,7.0053063 Z" id="Path-11" fill="#FFFFFF"></path>
                    <path d="M7.9408867,8.05610224 L10.4272463,8.05610224 L12.4014778,5.61740828 C12.7283038,5.12332632 12.7283038,4.69319438 12.4014778,4.32701247 C12.0746519,3.96083056 11.687861,3.93103626 11.2411052,4.23762958 L7.9408867,8.05610224 Z" id="Path-31" fill="#0056D6"></path>
                    <path d="M10.4407955,16.9878678 C8.82320744,16.9878678 7.20561941,18.6964139 7.20561941,20.4693475 C7.20561941,22.2422811 8.84072036,23.9931741 10.4796046,23.9931741 C12.1184889,23.9931741 13.6759715,22.3071813 13.6759715,20.4693475 C13.6759715,18.6315137 12.0583835,16.9878678 10.4407955,16.9878678 Z" id="Path-14" fill="#FDB323"></path>
                    <path d="M10.3672687,18.914327 C9.66876482,18.914327 8.9702609,19.6404591 8.9702609,20.3939559 C8.9702609,21.1474527 9.67632722,21.8915822 10.3840273,21.8915822 C11.0917273,21.8915822 11.7642766,21.1750352 11.7642766,20.3939559 C11.7642766,19.6128765 11.0657727,18.914327 10.3672687,18.914327 Z" id="Path-14" fill="#FCD7A0"></path>
                    <path d="M14.5220338,12.9194014 C13.4090332,12.9194014 13.4090332,14.8458606 14.5220338,14.8458606 C15.6350344,14.8458606 18.1536346,14.8458606 19.2987779,14.8458606 C20.4439213,14.8458606 20.4439213,12.9194014 19.2987779,12.9194014 C18.1536346,12.9194014 15.6350344,12.9194014 14.5220338,12.9194014 Z" id="Path-13" fill="#0156D6"></path>
                    <path d="M0.979940561,12.9194014 C-0.326646854,12.9194014 -0.326646854,14.8458606 0.979940561,14.8458606 C2.28652797,14.8458606 4.87385129,14.8458606 6.20629022,14.8458606 C7.53872914,14.8458606 7.53872914,12.9194014 6.20629022,12.9194014 C4.87385129,12.9194014 2.28652797,12.9194014 0.979940561,12.9194014 Z" id="Path-12" fill="#0056D6"></path>
                </g>
                <path d="M0,2.68544715 C0,6.2273151 0,9.07698121 0,13.0363903 C0,16.9957994 0.50292817,20.0020469 1.59897991,23.1686099 C2.72033684,26.4082813 4.4063174,27.7028968 6.07696188,29.0687133 C7.75533859,30.4408513 14.2268523,32.4756175 14.9218176,34.1967137 C15.6167829,35.9178098 16.5921237,37.9103012 17,37.9103012 C17.4186703,37.9103012 18.6542068,35.9545865 19.1038314,34.1967137 C19.5534561,32.4388408 24.9648734,31.2652673 27.7937312,29.0687133 C30.6225891,26.8721593 31.8658598,24.3606499 32.4291812,23.1686099 C33.3101257,21.3044501 34,19.6516569 34,12.9588501 C34,6.26604336 34,6.26604336 34,2.68544715 C34,-0.895149051 28.1530524,-0.895149051 28.1530524,2.68544715 C28.1530524,5.3979815 28.3984674,5.3979815 28.3984674,12.9588501 C28.3984674,16.3593409 28.4750767,19.5852314 25.7554301,22.8451279 C23.0357836,26.1050244 19.6623367,27.0852399 17,27.0852399 C15.3470479,27.0852399 10.7372807,25.6960778 8.50720874,22.7621098 C6.27713678,19.8281419 5.91191516,17.2213755 5.99233716,13.0363903 C6.04918906,10.0779422 5.86140327,3.82667299 5.86140327,2.68544715 C5.86140327,-0.856420791 0,-0.856420791 0,2.68544715 Z" id="Uh-Spot---Logo-2" fill="#E50000"></path>
            </g>
        </g>
    </g>
</svg>