<?xml version="1.0" encoding="UTF-8"?>
<svg width="114px" height="114px" viewBox="0 0 114 114" version="1.1" xmlns="http://www.w3.org/2000/svg" xmlns:xlink="http://www.w3.org/1999/xlink">
    <title>Regulation Sign Template</title>
    <defs>
        <rect id="path-1" x="9" y="11.0973451" width="97" height="91.8053097" rx="13"></rect>
        <filter x="-7.2%" y="-5.4%" width="114.4%" height="115.2%" filterUnits="objectBoundingBox" id="filter-2">
            <feOffset dx="0" dy="2" in="SourceAlpha" result="shadowOffsetOuter1"></feOffset>
            <feGaussianBlur stdDeviation="2" in="shadowOffsetOuter1" result="shadowBlurOuter1"></feGaussianBlur>
            <feColorMatrix values="0 0 0 0 0   0 0 0 0 0   0 0 0 0 0  0 0 0 0.5 0" type="matrix" in="shadowBlurOuter1"></feColorMatrix>
        </filter>
    </defs>
    <g id="UhSpot-Components" stroke="none" stroke-width="1" fill="none" fill-rule="evenodd">
        <g id="Regulation-Sign-Template">
            <g id="Navigation---Top-Left">
                <rect id="Navigation" fill="#6A6A6A" x="0" y="0" width="114" height="114" rx="13"></rect>
                <g id="Rectangle-3">
                    <use fill="black" fill-opacity="1" filter="url(#filter-2)" xlink:href="#path-1"></use>
                    <use fill="#ABABAB" fill-rule="evenodd" xlink:href="#path-1"></use>
                </g>
            </g>
            <g id="UhSpotLoader" transform="translate(21.375000, 20.461538)">
                <g id="Logo-2" transform="translate(14.741379, 0.000000)">
                    <path d="M2.43685045,17.1764722 C4.83643851,17.1764722 34.4086784,17.1764722 37.8909708,17.1764722 C41.3732631,17.1764722 38.4529449,9.11348682 34.5386987,5.59843095 C30.6244525,2.08337507 27.3433898,0 20.2409042,0 C13.1384187,0 9.45682669,2.52652997 6.1583808,5.59843095 C2.85993491,8.67033193 0.0372623839,17.1764722 2.43685045,17.1764722 Z" id="Path-11" fill="#656565"></path>
                    <path d="M5.23877942,13.4717429 L35.7469655,13.4717429 C34.9405743,10.5205848 33.5312009,8.40172762 31.5188452,7.11517123 C28.5003117,5.18533663 25.9700677,4.04152286 20.4928724,4.04152286 C15.0156772,4.04152286 12.1765587,5.42863735 9.63290938,7.11517123 C7.9371432,8.23952714 6.47243322,10.3583844 5.23877942,13.4717429 Z" id="Path-11" fill="#FFFFFF"></path>
                    <path d="M16.6408287,15.4925043 L21.8512147,15.4925043 L25.9883911,10.8027082 C26.6732838,9.85255061 26.6732838,9.0253738 25.9883911,8.32117782 C25.3034984,7.61698184 24.4929439,7.55968511 23.5567277,8.14928764 L16.6408287,15.4925043 Z" id="Path-31" fill="#656565"></path>
                    <path d="M21.8796082,32.6689765 C18.4898097,32.6689765 15.1000113,35.954642 15.1000113,39.3641298 C15.1000113,42.7736175 18.5265096,46.1407193 21.9609362,46.1407193 C25.3953628,46.1407193 28.6592051,42.8984255 28.6592051,39.3641298 C28.6592051,35.8298341 25.2694066,32.6689765 21.8796082,32.6689765 Z" id="Path-14" fill="#454545"></path>
                    <path d="M21.7255264,36.3737058 C20.2617498,36.3737058 18.7979732,37.7701136 18.7979732,39.2191459 C18.7979732,40.6681782 20.2775975,42.0991965 21.7606453,42.0991965 C23.2436932,42.0991965 24.6530796,40.7212216 24.6530796,39.2191459 C24.6530796,37.7170702 23.189303,36.3737058 21.7255264,36.3737058 Z" id="Path-14" fill="#BEBEBE"></path>
                    <path d="M30.4322032,24.8450027 C28.0998122,24.8450027 28.0998122,28.549732 30.4322032,28.549732 C32.7645942,28.549732 38.0425431,28.549732 40.442292,28.549732 C42.842041,28.549732 42.842041,24.8450027 40.442292,24.8450027 C38.0425431,24.8450027 32.7645942,24.8450027 30.4322032,24.8450027 Z" id="Path-13" fill="#FFFFFF"></path>
                    <path d="M2.05355191,24.8450027 C-0.684517303,24.8450027 -0.684517303,28.549732 2.05355191,28.549732 C4.79162112,28.549732 10.2135854,28.549732 13.0058288,28.549732 C15.7980721,28.549732 15.7980721,24.8450027 13.0058288,24.8450027 C10.2135854,24.8450027 4.79162112,24.8450027 2.05355191,24.8450027 Z" id="Path-12" fill="#FFFFFF"></path>
                </g>
                <path d="M0,5.16432145 C0,11.975606 0,17.4557331 0,25.0699813 C0,32.6842296 1.05393036,38.4654749 3.35080348,44.5550191 C5.70070588,50.7851563 9.2338269,53.2748015 12.7348098,55.9013718 C16.2519963,58.5400986 29.8136244,62.4531107 31.2699855,65.7629109 C32.7263466,69.0727112 34.7702591,72.9044255 35.625,72.9044255 C36.5023605,72.9044255 39.0915362,69.1434357 40.0337644,65.7629109 C40.9759925,62.3823862 52.316095,60.1255141 58.2442162,55.9013718 C64.1723374,51.6772294 66.7777209,46.8474036 67.9582105,44.5550191 C69.8043075,40.9700964 71.25,37.7916478 71.25,24.9208656 C71.25,12.0500834 71.25,12.0500834 71.25,5.16432145 C71.25,-1.72144048 58.9972054,-1.72144048 58.9972054,5.16432145 C58.9972054,10.3807336 59.5114943,10.3807336 59.5114943,24.9208656 C59.5114943,31.4602709 59.6720357,37.6639066 53.9727764,43.9329382 C48.2735171,50.2019699 41.2041615,52.0869999 35.625,52.0869999 C32.1610931,52.0869999 22.5009191,49.4155343 17.8276066,43.7732882 C13.154294,38.131042 12.3889399,33.1180298 12.5574713,25.0699813 C12.6766094,19.3806581 12.2830877,7.35898653 12.2830877,5.16432145 C12.2830877,-1.64696306 0,-1.64696306 0,5.16432145 Z" id="Uh-Spot---Logo-2" fill="#7E7E7E"></path>
            </g>
        </g>
    </g>
</svg>